<?xml version="1.0" encoding="UTF-8"?>
<svg id="a" data-name="Layer 1" xmlns="http://www.w3.org/2000/svg" viewBox="0 0 249.03 220.23">
  <path d="M8.23,143.71l-.55-1.57c.54-.84,1.28.11,2.05.81,2.55,2.35,5.05,5.8,7.48,8.41,22.77,24.41,48.79,43.47,77.72,54.97,11.79,4.69,23.01,7.01,34.85,9.99,2.34.59,2.03.84,4.34-.01,11.02-4.06,22.73-11.56,32.57-17.76,14.24-8.98,30.91-20.65,41.07-34.43,2.58-3.5,4.1-7.25,4.91-11.87l-1.07-.17c1.65-6.29.19-13.01-2.49-19.77-3.25-8.18-6.35-13.17-6.75-21.88-.31-6.65,1.65-13.98.71-20.57-.78-5.46-7.38-23.69-10.39-28.72-4.93-8.23-12.07-12.92-16.77-21.6-2.26-4.17-5.09-10.91-3.42-14.76-1.76-3.3-4.72-7.25-6.02-10.66-.69-1.8.22-2.64,1.8-.78,2.82,3.33,6.02,9.02,8.76,12.85.25.35.33.66.46,1.03l1.62-6.19c7.18-22.01,29.96-28.91,50.93-10.21l4.14,4.11,4.97,6.57c.76,1.85,2.02,3.55,2.94,5.33,14.32,27.83,4.04,58.81-8.34,79.05-5.03,8.23-11.77,16.23-15.2,25.6-2.48,6.78-.55,13.86-1.04,21.3-.76,11.63-7.74,18.31-14.63,25.55l-7.36,6.76-13.86,10.48c-1.66.42-2.92,1.94-4.31,2.88-10.31,6.92-23.26,14.2-34.96,18.76-8.99,3.5-13.23,3.87-23.7,1.58-35.79-7.84-70.06-29.01-97.52-59.29l-8.15-9.47-4.77-6.31ZM176.13,30.04c-.51-.39-2.44-3.22-3.06-4.04-.08-.1.18-.83-.38-.3-.36,7.15,5.14,15.76,10.12,21.52,1.6,1.85,3.88,3.77,5.58,5.71.72.83,1.3,1.8,2.01,2.64l-5.96-10.99-5.52-11.29c.32-.33.58.41.76.7,3.75,6.2,6.71,13.26,10.68,19.43l.86.73c-.33-.26-.69-3.33.15-2.3l.64,2.09c1.99-4.71-.92-10.89-1.26-16.3-.67-10.75,5.18-19.91,15.84-19.26.82.05,3.87.78,4.12.7.61-.19,1.02-.84,1.6-1.1,5.84-2.63,14.54,4.18,18.48,10,.25.37,2.89,4.83,2.16,4.52-.61-.39-.83-1.51-1.04-1.79l-4.39-5.81c-.6-.79-4.02-3.42-5.03-4.08-3.55-2.34-8.28-3.79-11.29-1.64-.04.45,6.07,2.63,6.73,2.97,9.16,4.78,14.03,15.68,15.76,25.09,2.78,15.06-2.44,32.63-10.81,42.4-2.85,3.32-8.31,9.05-13.63,5.66,2.89,10.72,5.36,21.45,6.8,32.17,6.98-17.85,19.22-31.87,26.61-49.45l.72.21c7.54-18.87,3.01-48.7-16.55-65.07-18.16-15.21-37.16-8.63-44.33,8.94-.86,2.1-2.84,7.88-1.99,10.27.63,1.79,3.29,6.57,5.31,5.96,1.11-.55,1.74-9.26,2.14-11.17,2.08-9.88,7.5-16.78,17.48-17.97,5.33-.64,13.64,1.59,18.4,6.1.41.39.69.41.55,1.07-6.28-4.66-13.63-6.38-19.99-4.84-8.14,1.97-12.53,7.57-14.75,15.86-1.69,6.34-1.75,20.63-9.9,4.48l-1.2.45-1.52-2.32c-.22.04-.71.17-.89.03ZM198.64,25.24c-6.6,6.14-3.91,13.47-2.91,22.45.45,4.04-.1,6.6-1.94,9.68,4.21,8.08,7.73,16.41,10.92,24.78.74,1.94,1.93,6.62,2.75,8.05.6,1.04,2.84,3.03,3.98,3,3.86-.1,9.27-9.03,11.05-12.38,7.95-14.96,13.11-45.83-8.71-59.08-2.31-1.4-1.15.04-1.78.37-.32.16-3.37-.32-4.14-.31-3.75.05-6.64,1.04-9.23,3.45ZM212.07,136.43c-1.08-14.69-4.08-29.71-8.38-44.47.08,10.3-1.92,19.15,2.12,29.95,1.83,4.89,4.54,9.6,6.26,14.53Z"/>
  <path d="M83.72,47.72c12.82-9.17,26.78-17.9,41.69-23.87,2.49-1,5.05-1.94,7.65-2.69l.69,1.05c-1.55,1.91-3.96,3.21-6.05,4.55-8.65,5.54-17.78,10.45-26.42,16.02-24.48,15.79-47.44,34.11-68.75,53.97-8.36,7.79-22.38,20.19-27.11,30.89-.31.71-1.3,2.57-.55,3.32,5.17.09,9.81-1.83,14.2-3.78-3.04-.67-4.09-2.06-3.71-5.12,1.23-9.79,21.89-24.52,28.95-30.62l17.02-15.26-1.58,1.93c-2.08,1.71-3.86,3.79-5.81,5.63-10.56,9.94-23.34,19.11-32.56,30.3-2.21,2.68-9.91,13.42,0,11.59,4.74-.88,11.72-5.11,15.96-7.5,12.58-7.1,24.36-15.36,36.07-23.72,22.22-15.85,44.18-32.44,62.31-53.17,1.22-1.4,2.34-3.23,3.57-4.58.13-.15.67-.63.59-.05l-7.45,10.39c8.04-7.9,16.85-15.54,23.86-24.5,1.44-1.84,3.08-4.15,4.21-6.24.77-1.44,1.69-3.02,1.45-4.93-3.99-1.37-8.27.06-11.81,1.05-5.99,1.68-11.68,4.1-17.6,5.96l-.08-1.05c5.29-2.8,10.63-5.57,16.36-7.57,4-1.4,10.46-4.04,14.9-.67.32-.43.03-1.31.91-.88.17.64,1.33,3.18,1.32,3.48,0,.06-.41.08-.44.39-3.29,34.17-28.62,59.18-53.1,75.9-2.22,1.52-4.37,3.14-6.62,4.63l-.68-.28c3.92-3.11,7.35-6.86,11-10.3,16.78-15.83,35.14-30.68,43.53-54.14l1.79-5.54c-1.58,1.94-2.94,4.11-4.5,6.06-11.88,14.81-26.42,27.01-40.46,39.46-15.39,13.66-26.8,31.84-42.7,45-12.76,10.56-27.81,17.4-43.75,22.63-6.76,2.22-14.16,5.02-21.97,3.43-.17-.16.08-.32.2-.35.83-.14,3.02.22,4.14.11,6.79-.62,14.28-3.55,20.45-5.88,21.26-8.01,36.56-17.48,52.04-33.98,5.35-5.7,10.17-12.01,15.56-17.68-.28-.47-.68.09-.89.28-.43.4-.7.9-1.2,1.32-6.99,5.77-14.69,10.69-21.71,16.42-19.2,12.31-39.01,28.14-61.38,35.1-4.05,1.26-15.77,4.05-15.25-5.35.36-6.53,11.79-19.09,16-23.57,14.18-15.05,31.34-29.52,47.41-42.26,6.56-5.2,13.48-10.48,20.29-15.34Z"/>
  <path d="M185.36,83.99c-1.16-7.95-3.95-16.05-7.5-23.7.3-.33.65.43.82.72,3.01,4.93,6.14,14.76,7.5,20.24.68,2.75.95,5.97,1.74,8.59,1.32,4.36,3.55,9.16,5.01,13.7,4.76,14.8,7.5,30.13,7.51,44.67,0,.3.62,1.7-.41.7-.46-17.14-5.1-34.89-11.25-52.03.63,10.81.04,21.74-3.94,30.83-3.45,7.9-9.42,13.94-13.31,21.61-3.92,7.72-5.99,16.65-9.5,24.62-8.27,18.76-21.89,29.87-41.9,33.79-1.62.32-12.06,1.7-13.04,1.13-.13-.08-.37-.4-.19-.45,5.87-.09,11.6-.92,17.02-2.44,16.09-4.53,27.83-14.22,35.13-29.55,4.44-9.31,6.52-20.15,11.26-29.26,4.28-8.22,10.68-14.48,13.92-23.49,2.4-6.67,3.36-15.33,3.19-22.99-.18-7.99-1.36-11.5-4.85-19.36-4.84-10.89-10.83-21.69-16.86-32.11.37-.27,1.03.92,1.24,1.24,7.13,10.64,13.15,22.07,18.41,33.52Z"/>
  <path d="M34.64,143.98c23.9,26.31,53.93,48.46,85.24,57.8.15-.4-.5-.6-.77-.73-24.04-11.99-44.19-27.18-61.06-50.76l-1.99-3.46c2.02,2.5,3.8,5.23,5.83,7.72,13.44,16.45,31.12,31.56,48.87,41.3,3.03,1.66,6.38,3.02,9.35,4.7.98.56,2.14,1.12,2.81,2.11-.03,1.06-4.37.16-5.22,0-26.38-5.24-60.39-31.18-79.72-53.45-.86-.99-2.93-3.19-3.45-4.14-.26-.48-.32-.87.12-1.08Z"/>
  <path d="M135.39,208.31c-.4-.44.27-.52.51-.66.48-.28,1.09-.56,1.6-.81,6.44-3.14,13.3-5.57,19.73-8.74,19.72-9.72,41.26-26.51,49.11-48.79.67-1.91,1.08-4.78,1.86-6.45.16-.33.44-.54.66-.23.41.59-1.2,6.79-1.5,7.75-5.96,19.21-22.05,33.51-38.18,42.69-10.68,6.08-22.63,10.02-33.79,15.23Z"/>
  <path d="M22.41,144.5c10.14,13.28,22.03,25.54,34.71,35.98,7.33,6.04,15.07,11.21,22.97,16.07-3.6-1.58-7.36-3.8-10.79-5.99-14.87-9.48-29.21-22.82-40.69-37.03-1.79-2.21-4.91-6.06-6.31-8.35-.24-.4-.44-.9.12-.68Z"/>
  <path d="M176.73,57.97c-3.78-7.01-8.45-16.02-7.13-23.19l.74,5.58c1.05,5.73,4.13,11.02,6.16,16.44.15.39.54.81.22,1.17Z"/>
  <path d="M237.46,41.42c5,10.39,4.22,22.57,1.41,31.8-2.87,9.43-10.53,22.82-19.68,25.79-1.66.54-5.1.93-6.48-1.17,6.2,2.87,11.47-2.88,14.64-6.82,9.99-12.45,13.97-30.34,9.98-48.73-.1-.45-.51-.61.12-.87Z"/>
</svg>