<?xml version="1.0" encoding="UTF-8"?>
<svg id="svg-pattern" xmlns="http://www.w3.org/2000/svg" version="1.1" viewBox="0 0 165 200">
  <!-- Generator: Adobe Illustrator 29.1.0, SVG Export Plug-In . SVG Version: 2.1.0 Build 142)  -->
  <g>
    <path d="M74.1,200c.5-1.9,1.8-3.4,3.9-2,.8.6,1.3,1.2,1.4,2h.5c-.3-2.2-2.1-4.1-4.6-2.8-1.2.6-1.6,1.6-1.8,2.8h.6Z"/>
    <path d="M69.9,200c-.4-.2-.8-.4-1.3-.5-.8-.2-1.8,0-2.6.5,0,0,3.9,0,3.9,0Z"/>
  </g>
  <g>
    <path d="M18.4,103.3l-2.2,6.2c-1.2,1.3-3.8,1.1-4.4-.7-1.1-3.8,2.3-7.1,4.8-9.4-2.6.5-9,5.8-9.2-.2-.1-3.7,3.8-4,6.5-3.4-1.2-1.2-4.4-1.2-4.1-3.7.3-3.5,6.5-.9,7.7,1-1-2.2-3.2-6.6.6-7.3,4-.8,3.9,5.7,3.6,8.2.9-.8,1.2-2.2,1.9-3.2,3.7-5,7.9.2,3.7,3.7l-2.4,1.6c2.3-.8,6.8-.9,6.8,2.5,0,3.1-3.4,3.2-5.6,2.5,1.3,1.3,4,4.5,2.2,6.2s-3.8,0-4.9-1.5c.5,2.3-.7,6.6-3.7,4.8-.4-.2-1.3-1.9-1.3-2.2v-5.2h0ZM21,93.2c0-1.7,0-6.3-2.2-6.5-4.9-.5.7,8.7,1.1,8.3l-.3-3.6,1.5,1.8h0ZM21.6,96.5c1.8-.4,8.7-3.9,6.2-6.4-1.5-1.5-4,1.6-4.7,2.8l1.3-.3c.5.5-.9,1.1-1.5,1.8-.2.3-1.4,2-1.3,2.1ZM18.7,96.8c1.2-1.4-6-7.5-7.8-5-1.3,2.2,3.4,2.6,4.8,3.2,1.1.5,1.9,1.4,3,1.8ZM17.8,97.6c0-.5-.5-.4-.8-.6-3.5-1.4-10.6-2-8.3,3.8,1.8,1.9,6.8-3.4,9.1-3.2h0ZM30.1,97.1c-1.2-1.3-5.8-.3-7.4.2-.3.1-.7,0-.8.6,2.2,0,4.3,2.8,6.2,2.8,2.2,0,3.3-2.1,2-3.6ZM19.8,96.8c-1.3.3-.8,2.3.5,2,1.3-.3.8-2.3-.5-2ZM25,106.4c.6.5,1.8.9,2.5.4,2.3-1.9-4.1-7.4-6.1-7.4,2.1,1.3,2.3,5.8,3.6,7h0ZM18.1,99.7c-2.1.8-7.9,7.4-5,9.3,3.7,2.4,4.6-7.4,5-9.3ZM19.9,99.7c-.4,2.4-.9,5.2-.6,7.5.2,1.3,1.1,4,2.6,2.4,1.7-1.8-.7-6.9-1.5-8.9-.1-.4,0-.9-.6-1Z"/>
    <path d="M153.8,100.9c0-.3-.7-1.3-1.2-.8-.1,0-.1.4-.4.7-1.8,1.2-5-.6-4-2.9-4.5-.2-4.5-7.3.6-6.8-3.6-3.8,3.6-8.2,5.2-3,.4,1.1.3,1.5.4,2.6,0,.4-.2.9.4.7.7-.3,1.8-2.8,2.5-3.4.2-.2.6-.3.6,0l-.6,1.2c-.2.5,1.4-.2,1.5-1.8,0-1.8-2-2.5-3-1.2-.4.6-.4,1.9-1.2,2.2-.4-4.7,6.1-4.8,4.7,0,3.6-.7,5.7,2,2.7,4.6v.4c3,1.8-.9,6.9-3.8,5.3-.4,1.8-2.1,3-3.9,2.4l.3,4.4,1.3-3,2.9-1.5c1.1,1.4.1,2.7-.7,3.9,1.6-.7,4.5-1.1,2.7,1.4-1.5,2.2-5.1,1.5-5.6,2.1l.8,3.3c-1.4,0-1.2-3-1.9-3.2-.8,0-1.6.5-2.4.5-4.8.5-5.6-2.9,0-2.6.6,0,1.1.3,1.6.3-1-2-1.7-1-3-1.2-1.4-.2-3-1.9-2.6-3.5,2.7-.7,4.4,1.8,5.8,3.8.9,0,.1-.3.1-.4,0-1.2.2-3.5,0-4.4h0ZM150.4,86.3c-1.4.3-2.5,2-1.8,3.5.6,1.3,3.3,1.2,4.4,2.1.9-.2,1-6.4-2.6-5.6ZM156.3,92.5c1.5-.2,3.7,0,5.3,0s2.1-2.3.4-3.4c-2.9-1.9-6.7,3-6.2,3.7.2,0,.3-.3.4-.3ZM152.2,92.6c-.4-.6-4.4-1.1-5.3-.8-2.7.9-1.3,6.3,1.5,5.4,1.1-.4,2.7-2.6,4.1-2.9,0,0-.3-1.6-.3-1.7h0ZM153.7,92.2c-.8.3-1.2,1.6-.1,2.1,2.1,1,2.6-2.9.1-2.1ZM158,97.8c2.4,1.9,5.2-2,4.1-3.6-1-1.3-4.8-1.2-6.2-.7-.6.7,1.6,3.9,2.1,4.3h0ZM153.2,94.9c-.3-.3-4.4,2.8-4.6,3.3-.6,1.4,1.9,3.3,3.2,1.8.8-1,.7-3.8,1.3-5ZM153.8,96.1c-.3,1.6-.3,2.9.6,4.3,1.2.6,3.4-.5,3.1-2-.1-.8-2.6-3.9-3.4-3.2l.3,2.1-.6-1.2h0ZM155.3,106.4l2.8-2.1c.5-.8,1.3-1.9.3-2.7-2.3.6-2.6,2.7-3.1,4.7ZM151,103.3c-.3-.3-2.1-1.4-2.3-.5-.4,1.4,2.1,2.9,3.2,2.1-.4-.4-.6-1.2-1-1.5h0ZM160.6,104.9c-1.9,0-3.4,1.2-4.4,2.7,1.8,0,4.3-.6,4.4-2.7ZM148.8,107.9c1.5.4,3.1,1.2,4.4-.1-1.2-1.1-3.4-1.4-4.4.1Z"/>
    <path d="M68.2,146.6c1-.2,3-1.2,4.1-1.7s.8.5.4-.3c-2.3-.5-5.3-1.1-5.7-3.9,1.3-.9,3.4-.1,4.2,1.1.7,1.1,0,2.2,2.3,2.4-.2-.5-.6-.9-.9-1.4-2.3-5.2,1.1-5.6,2.4-1,.2.8,0,1.6.4,2.4.5.6,3.2-.7,3.7.6l-3.3.5c-.4.7,1.5,3.7,0,6-1.7,2.6-2.4-.3-2.3-2-.8,1.2-1.7,2.6-3.3,2.1l.3-3.3,2.3-2.3-4.2,1.4c1.2,1.4.8,3.4-.8,4.5,2.6,2.1-.8,7.7-3.5,5.5l-.4.2c-1.2,3.8-4.6,2.9-5.3-.8-4,3.1-6.2-3-1.8-4.4,0,.9-1.3,1.3-1.6,1.9-.9,1.4.6,3.1,2.2,2.3,1.4-.7,1.5-2.4,1.1-2.1l-.9,1c-.3.1-.3-.3-.2-.6.3-.9,2.2-2.9,2.2-3.6-.1-.7-.4-.3-.9-.1-1,.3-1.4.6-2.6.6-5.4.4-4-8,.9-6-2.4-4.5,4.3-7.2,6.1-3.1,1.8-1.8,4.6.5,4.2,2.6,0,.4-.4.5-.4.7-.3.7.9.9,1.2.8h0ZM59.5,149.2c-1.2-.8-2.2-3.3-3.6-3.3-1.6,0-2.8,1.5-2.6,3,.6,3.6,6.3,1.2,6.1.3ZM61.4,151.5c-.8-.2-4,5.1-1.1,7.1,1.7,1.2,3.2-1.1,3-1.7-.6-1.5-1.6-3.5-2-4.9,0-.1.3-.3.1-.5ZM59.9,148.2c.1,0,1.6-.2,1.7-.3-.3-1.4,1.2-3.7,1.1-4.9-.2-3-5.8-2.3-5.5.6,0,.9,2,4.4,2.7,4.6h0ZM62,148.8c-.9-.8-2,0-1.9.9.2,2.6,3.6.7,1.9-.9ZM66.8,151.7c-.6-.4-4.4-1.2-4.8-.4.1,1.5,1.4,5.1,3,5.5,1.9.5,4.5-3.7,1.9-5.1h0ZM66.5,145.1c.9-1.8-1.8-3.5-2.8-2.4-.4.4-1.7,5.3-1.3,5.5.9-1.1,3.6-2,4.2-3.1ZM63.7,148.4h1.3c0,0-2,.6-2,.6-.3,1,3.5,2.1,4.3,1.9,1.4-.3,1.7-2.7.7-3.6-1.6-.3-2.9.2-4.2,1.1h0ZM70.6,150.5c1.1.6,1.8-.5,2.4-1.3l.9-3.4c-1.7,1.2-3.5,2.3-3.2,4.6ZM69.3,143.1c.5.2,1.2.1,1.8.3.4-1.3-1.9-3.1-3.1-2.2-.7.5.9,1.7,1.3,1.9h0ZM75.3,146.2c-.9,1.5-1.6,3.4-.8,5.1,1.9-.9,1.5-3.5.8-5.1ZM74.3,143.4c.8-1.7-.6-3-1.5-4.2-1.1,1.5,0,3.4,1.5,4.2Z"/>
    <path d="M14.5,35.9c-.3,1.7-2.6,3.7-2.8,5.1,0,.4.9,4.3,1,4.5,2.4-2.8,3.8-11.2,8.4-11.3,2.6,0,2.6,2.7,1.9,4.6-1.8,4.2-9.1,4.1-9.6,8.5-.1,1,.6,1.9.7,2.8,0,.3,0,1-.4.7-.7-.3-1.1-3.6-1.9-4.6-1.2-1.4-3.7-1.4-5.1-2.3-1.7-1-5.4-5.6-2.3-6.7s4.8,4.8,7,6.4c.2,0,.2-.3.1-.4-.2-1.1-1.3-4.5-1.7-5.7-.3-.9-1.3-3.5-1.8-4-.8-.9-3.1-.8-4.5-1.5-2.4-1.3-2.8-3.1.3-3.6-1.5-.9-3.9-1.9-2.5-4,.8,1.3.1,2.8,2.2,3-2-6,2.9-6.2,5.2-1.5,1-2.1,2.6-1.2,2.8.8.3,2.7-1.8,4.1-2.6,6.4l2.4,6.1c1.1-1.2,2.4-2.8,2.4-4.5s-1.3-3.5.9-4.9c.5.2-.1.9-.1,1,0,1.5.2,3.7,0,5h0ZM8,30.5c.6-.1.6-.8.6-1.3,0-2.2-1.5-5.9-4.2-5.6-1.6.6-.5,3.5.1,4.6.7,1.3,1.8,1.9,3,2.6l.3-.9.2.6h0ZM9.2,30.8c1.7-1,2.6-4.4.7-5.6-1.8,1.6-.4,3.5-.7,5.6ZM7.1,32.2c-.2-1.3-4.2-4.4-4.7-2.5-.4,1.5,3.5,3,4.7,2.5ZM17.5,42c2.1-.2,7.5-5.4,4.4-7-2.5-1.3-6.6,6.8-6.2,7.2l3.1-2.7c.6.7-1.5,2.2-1.3,2.4ZM11,44.4c-1.3-1.3-3.8-6.2-5.5-6.5-.8-.1-1.3.5-1.3,1.3,0,2.3,3.7,4.1,5.5,4.9.4.2.8.4,1.3.3h0Z"/>
    <path d="M128.9,141.2c-1.4,1-4.4.6-5.7,1.5-.3.2-2.6,3.6-2.5,3.8,3.7-.2,10.7-4.9,14-1.6,1.8,1.8-.1,3.8-2,4.5-4.3,1.6-9.2-3.8-12.7-1.1-.8.6-.9,1.8-1.6,2.5-.2.3-.7.8-.8.2-.2-.7,1.9-3.3,2-4.6.2-1.9-1.5-3.7-1.9-5.3-.5-1.9.3-7.8,3.2-6.2s-.2,6.8.2,9.5c.1.2.3,0,.4-.2.7-.9,2.3-4,2.9-5.2.4-.8,1.6-3.3,1.7-4.1,0-1.2-1.6-2.8-2-4.3-.7-2.6.4-4.2,2.8-2.2-.4-1.7-1.3-4.2,1.2-4.6-.4,1.4-1.9,2-.6,3.7,2.9-5.6,6.4-2.2,4.6,2.7,2.2-.8,2.7,1,1.4,2.6-1.8,2.1-4.2,1.5-6.4,2.6l-2.8,6c1.7,0,3.7-.2,4.9-1.4s1.6-3.3,4.2-2.8c.2.5-.7.5-.9.6-1.1,1-2.6,2.7-3.6,3.5h0ZM128.4,132.7c.5.4,1-.1,1.4-.5,1.6-1.5,3.2-5.1,1.2-6.9-1.6-.7-2.9,2.1-3.2,3.3-.5,1.4-.1,2.6.1,4l.8-.4-.3.5h0ZM129,133.7c1.9.6,5-1.1,4.6-3.3-2.4-.3-2.8,2.1-4.6,3.3ZM126.5,133.2c.8-1,.3-6-1.4-5.2-1.4.7.2,4.6,1.4,5.2ZM126.6,147.5c1.6,1.4,9,1.8,8.1-1.6-.8-2.7-9.4,0-9.5.5l4.1.4c0,.9-2.6.4-2.6.7ZM120.4,144.4c0-1.8,1.8-7.1.9-8.5-.5-.7-1.3-.6-1.8,0-1.7,1.5-.4,5.5.3,7.4.2.4.2.9.7,1.2h0Z"/>
    <path d="M74.8,38.2c-.5,1.3-1.1,1.5-2.5,1.2-1.4-3.8,4.2-4.7,4.6-8h-1.2c0-2.2,2.6-2.7,4-4.4.7-.9,1-1.9,1.5-2.9.1-.2,0-.5.5-.4,1.5,3.3,3.9,5.6,6,8.5.1,1.1-1.8.5-2.3.8,1.6,2.5,2.4,5.3,5,7.1-.3.3-.7.6-1.1.7-1.5.3-2.6-1.4-1.4,1.8.2.6,1,2.3,1.4,2.8.6.8,1.7,1,1.7,2-1.2.3-2.1.6-3.2-.3v.9c-.1,0-.7.3-.7.3-.8-.5-2.2-.4-2.9-.6-.6-.2-.5-1.3-1.4-1.1,0,.9.1,1.9,0,2.8,0,.4-.2.9-.6.4v-3c-.1,0-1.5-.3-1.5-.3-.3.3.6,3.2-.6,3.6v-3.1c-1.5-1.8-2,.6-3.4.4l-.6-1.2c-1.2.8-2.9,2.4-2.5-.3-.9.4-3.2,1.3-3-.4,0-.7.9-1.1,1.3-1.7.9-1.4,1.7-3,2.7-4.4.3-.4,0-.8.9-.6l-3.7,6.8c1.3.2,1-.9,1.2-1,.2-.2.7-.2,1.1-.5.6-.5.9-1.4,1.9-1.2v1.4c-1,.5-2-.4-2.6.8l1.2.4-.3.9,2.5-1.2c1,3.3,2-1.7,3.3-1.5,1.5,1.4-1.8.7-.3,2.1l.9-.6c.4,1.4,2.1-.1,2.6,0l1.1,1.8.4-.6,2,.9.5-1.2c.4-.3,1.8,1.5,2.4.4-1.1-1.4-2.3-3-2.6-4.8,0-.5.3-1.2,0-1.4-.7-.4-1.5.3-1.9-1l-.6,1.2-1.5-1.2-1.5.9-.8-1.2-1.1.3v-.9c-1.5-.3-1.4,1.5-2.9,1.2l-.3-1.4c-.2-.1-1.1,0-1.4,0,.1-.3,0-1,.6-1.3-.4-.4-3.1,1.5-2.7,1.9.7,0,1.3-.5,2.1-.6h0ZM86.7,32.3c.4-.4-4.3-5.7-4.9-6.5l-5.1,4.6c.8.5,1.9.2,2.2,1.3l1.8-1.2v1.2c.1,0,2.2-1.2,2.2-1.2l.7,1.8.5-1.1h1.6s-.4.8-.4.8l1.5.3h0ZM80.5,31.7l-1.6.9-1.4-.9c-.8,2-2.3,3.4-3.9,4.7l2.7-.3-.6,1.5,1.2-.3.3,1.5,2.7-1.5v1.2l1.5-.6.4,1.2,1.2-1.2,1.5,1.5.9-1.5,1.2,1.8c.3.1-.3-1.3.9-.9.9.3.2,1.6,1.7,1.5.3-.3-1.8-2.8-2.1-3.4-.4-.7-1.8-4.2-2-4.3-.1,0-1.9.7-2.5-.9-.7.7-1.1,1.4-2.2,1.2l.3-1.2h0Z"/>
    <path d="M159.1,132.4c.5-.5-2.3-2.3-2.7-1.9.6.3.4,1,.6,1.3-.3,0-1.3,0-1.4,0l-.3,1.4c-1.5.3-1.4-1.5-2.8-1.2v.9c-.1,0-1.3-.3-1.3-.3l-.8,1.1-1.4-.9-1.5,1.2-.6-1.2c-.4,1.3-1.2.6-1.9,1-.4.2,0,.9,0,1.4-.3,1.9-1.5,3.4-2.6,4.8.5,1,2-.7,2.4-.4l.5,1.2,2-.9.4.6,1.1-1.8c.5-.1,2.2,1.4,2.6,0l.9.6c1.5-1.4-1.8-.7-.3-2.1,1.3-.3,2.3,4.8,3.3,1.5l2.5,1.2-.3-.9,1.2-.4c-.7-1.2-1.6-.3-2.6-.8v-1.4c1-.2,1.3.7,1.9,1.2.3.2.8.3,1.1.5.2.2-.1,1.2,1.2,1l-3.7-6.8c.9-.2.6.2.9.6,1,1.4,1.8,3,2.7,4.4.4.6,1.2,1,1.3,1.7.2,1.7-2.1.8-3,.4.4,2.7-1.3,1.1-2.5.3l-.6,1.2c-1.4.2-1.9-2.2-3.4-.4v3.1c-1.1-.3-.3-3.3-.6-3.6l-1.4.3v3c-.5.5-.7,0-.7-.4-.1-.9,0-1.9,0-2.8-.9-.1-.8.9-1.4,1.1-.7.3-2.1.1-2.9.6l-.6-.3v-.9c-1.3.8-2.1.6-3.4.3,0-1,1.1-1.2,1.7-2,.4-.5,1.1-2.1,1.4-2.8,1.2-3.2.1-1.5-1.4-1.8-.4,0-.8-.4-1.1-.7,2.6-1.8,3.4-4.6,5-7.1-.6-.4-2.4.2-2.3-.8,2.1-2.9,4.5-5.2,6-8.5.6-.1.4.1.5.4.6,1,.8,1.9,1.6,2.9,1.4,1.7,4,2.2,4,4.4h-1.2c.4,3.3,5.9,4.3,4.6,8-1.4.3-1.9,0-2.5-1.2.8,0,1.3.6,2.1.6h0ZM146.7,125.5l-.4-.9h1.6s.5,1.2.5,1.2l.7-1.8,2.1,1.2v-1.2c.1,0,1.9,1.2,1.9,1.2.3-1.1,1.4-.8,2.2-1.3l-5.1-4.6c-.6.8-5.2,6.1-4.9,6.5l1.5-.3h0ZM151.7,126.4c-1.1.2-1.6-.5-2.2-1.2-.6,1.6-2.4.8-2.5.9-.2.1-1.6,3.6-2,4.3-.3.6-2.4,3.1-2.1,3.4,1.5.1.8-1.1,1.7-1.4,1.1-.4.5,1,.9.9l1.2-1.8.9,1.5,1.5-1.5,1.2,1.2.4-1.2,1.5.6v-1.2l2.7,1.5.3-1.5,1.2.3-.6-1.5,2.7.3c-1.5-1.3-3.1-2.8-3.9-4.7l-1.4.9-1.6-.9.3,1.2h0Z"/>
    <path d="M99,134.8l1.3-2.4c1.1-1.6,2.3-2.1,4.3-1.8.3,2.2-.7,3.9-1.8,5.6.6.4,6-3,6.8-.7,1.1,3.1-4.9,4.5-7.1,3.9.9,1.5,4.3,3.1,2.6,5.2-.6.8-2.4.9-2.5,1-.3.3.4,2.4-1.6,1.7-.9-.3-1.3-4.8-1.4-5.9-1.2,1.5-2,4.8-4.3,5.1-1.7.2-2.6-.2-2.5-1.9,0-2.5,2.2-3,3.6-4.6-2.9.3-5.9.5-7.1-2.8,0-.6,3.6-.9,4.1-.7.2,1.6-2.8.4-2.9,1.3,1.7,2.6,5.7,1.8,8,.4.2-.7,0-.5-.4-.7-1.3-.9-2.8-.9-4.3-.8l2.4-.3v-.4c-1.9-1-2.8-7.2-1-7.8,2.9-.9,4.7,4.2,3.9,6.5h0ZM98.4,136.8c0-2,0-6.3-2.1-7.2-2.8-1.2-1.5,3.2-.8,4.6s1.5,2.4,2.9,2.6ZM101.8,136.1c.6-.6,3-4.5,1.7-4.9-2.2-.7-3.7,3.8-3.6,5.4l.6.3c.4-.3,1-.5,1.4-.9h0ZM108.7,135.6c-.5,0-.9-.2-1.5-.2-1.2.1-5.2,1.4-6.1,2.2-.2.1-.8.2-.4.7.8.9,8.6.2,8-2.7ZM99,139.2c-1.4.4-6.8,4.9-5,6.4,2.2,1.8,5.6-4.4,5-6.4ZM102.3,145.2c.4-.4,1.6-.2,2-.8,1.2-1.5-2.4-5-4.2-4.9-.4.5.5,6,.9,6.9.7,1.4.9-1,1.2-1.2h0Z"/>
    <path d="M26.5,121.4c-.2.2-.5,2.2-.4,2.3.3.4,3.2-2.4,2.7-1-.6,1.5-4,1.1-2.9,4.3l2.4-.4c-1.1,1.3-3.4,1.1-3,3.4.7-.1,5.1-1.9,5.3-2.1.2-.3.1-2.6.8-2.6.8,0-.3,2.2-.2,2.4,1.4-.1,2-.9,2.5-2.1.4-.2,1.7,1.3.7,1.9-.4.3-1.8-.7-2.4.6l1.5,1c-1.1,0-2.2-1.3-3.2-.1,0,.5,2.9,1,2.1,1.9-.3.3-2.5-1.6-3-1.7l-3.5,1.6c1,.3,2.4,2.1,3.2,2.3.9.2,2.7-.7,3.8-.1l-2.7,1c1,1.3,2.1,1.1,3.5.7l-.9.9c2,1.7.2,1.2-1.2.6l-.4,1.8c-1-.7,0-1.4,0-2,0-.5-1.8-2.2-2-1.9v2.1c-1-.7-.3-1.9-.7-2.7-.2-.3-3.4-2.7-3.7-2.4-.4,2.1.5,2.8,1.2,4.4l-1.8-.9c0,.6-.1,1.3,0,1.9.2,1.1,3.2,2.6,1.5,3.3l-1.8-2.2c-.4,1.2.5,4.7-1.4,2.5.7-.7,1-1.5.8-2.5l-2,1.1-.6-.5,2.9-1.6.4-2.3-2,1.1-1-.5c2-.6,3.8-1.4,3.2-3.9-2.1.7-3.8.9-3.8,3.6l-.3-1.8c-2.1-.7-2.2,3.5-2.8,3.6-1,0,.7-2.4.4-2.7-1.1-.3-2.4,1.2-3.2.1,1.5-1.3,3.5-.5,4.9-1.6l-.2-.8-1.5-1c1.1-.4,2.4,1.1,3.1,1.2.3,0,2.1-.8,2.5-1,.2-.1.8-.1.6-.6,0-.2-2.4-1.7-2.6-1.8-.6-.1-2.1.8-3,.4v-.9l1.8-.3c.3-.4-1.7-1.9-2-2-.2,0-4.2,1-3.1,0l2.4-.3-1.5-2.1c1.1-.6,1.5,2,2.2,1.8.9-.3-.7-2.9.7-2.7.2,2-.5,3.6,1.8,4.4.3-.4-.6-2.4.6-2.1-.4,3.1.8,3.8,3.2,5,.7-1.8-1.2-2.5-1.5-4.1l2.1,1.2.2-2.2-2-2.9c1-.3,1.3,2.1,1.9,1.8.9-.4.5-2.4-.1-3,.5,0,.9-.8,1.5-.5,1.4.7,0,1.2-.2,1.4h0Z"/>
    <path d="M118,33.5c-.6.6-.9-.9-1.5-.6v3c1.6.3,1.7-3.1,3.2-1.7.9.9.5,3,0,4.1-.9,1.6-3.4,2-2.8,4.2l1.9-2.7c2-1.1,5.4-3.7,5.8.1.3,3.6-3.3,6.5-6.8,6.1.5,2.9-.9,5.9-4.2,5.3-1.3-.2-2.3-.8-2-2.3-3.1.4-3.2-.4-4.5-2.6-.4-.6-1.9-1.1-.5-2.3l1.2.3-1.2.6c-.2.7,1.5.8.9,1.6l2.9-.9c-.4.8-1.2,1.2-2.1,1.2,1.9,3.5,5.6.2,7.8-1.2.4-.3-.2-.4-.4-.4-2.4-.6-5.2.2-7.7.1-.1-.7.3-.7.8-.9,1.4-.5,3.1-.3,4.6-.3l-.9-3-1.2.2c-.6.9.3,1.3.3,2.2-1.3-.9-1-1.9-2.9-1.5-.3,1.1.8,1.1,1.2,1.8-3,0-2.4-4,.6-2.1.6-2.3,3.8-1,4.7.5l-2.4-1,1.2,2.9,2.6.7c-.7-1.2,0-2.8-.7-4-.3-.6-1.4-.9-2.1-1.7-1.6-1.9-1-2.8-.4-5,.4-.1.6-.5,1,0,.5.7-.3.5-.4.8-.6,2.2-.8,4.5,2.1,4.8.4-2.4-.4-3.1-1.8-4.7.6-.3,1.2,1.3,1.6.6l.4-2.7-.7.9c-.8-.5,1.3-2,1.5-2,.8,0,1.4,1.3,1,1.7h0ZM116.8,39.8c1.6-.7,2.9-2.2,2.7-4-.3-2.7-1.9,1.2-2.8,1.7,0,0,.2,2.4.2,2.4ZM123.3,38.9c-2.9-.2-6.2,2.1-5.9,5.3.5,0,2-2,2.1-.7l-1.5,1.6c3.5.5,6.4-2.7,5.3-6.2h0ZM113.2,49.9l.8.9c1.6,0,3.8-2.7,3-4.2-.4-.7-1.9,1.2-2.2,1.3-.9.4-3,0-2.7,2.3,0,0,1.1-.3,1.1-.3Z"/>
    <path d="M95.9,194.3c-.1,0-.8-.1-1.2.1,0,0-1.1,2-1.2,2.1-.2.8,1.8.3,2,1.2.3.4.5,1.3-.1,1.6-.7.3-.6-2.1-1.8-2-.9,0-2.2,2.8-3.9,2l2.5-1.8,1.3-3.2c-3.3.2-6.1-.3-7.4-3.6-.9-2.2-.2-4.4-.4-6.7.3-.4.4-.2.8-.2,1,.2,8.3,1.9,8.5,2.3,0,.5.4,1.9-.2,2-1.3-3-5.6-2.3-8.3-3.6-.7,4.6.4,10.9,6.5,8.8-1.1-1.4-1.7-3.3-3.8-2.8,0-.7,1.3.2,1.2-.7-.1-.9-1.2-1-1.2-1.9,2.4,1,2.4,4,4.9,4.8l.8-3,.4,1.2c.7-1,1.7-2.9,3-3.2s6.2,1.8,8.1,1.4c0,7.1-4.6,10.9-10.3,5.3,2.1.5,3.5,2.2,5.8,2.1,3.5-.2,3.2-4.3,4-6.8-2,.2-6.5-1.7-8.1-1.1-.8.3-2.6,4.6-2.3,5,1.8-.6,3.7-.7,4.9-2.4l.2.9,2.9-.4-2.9,1.2,1.5,1.9c-1.3,0-1.8-1.4-3.1-1.5-.5,0-1.9.2-2.3.4-.6.3-.4.8-.5.8h0Z"/>
    <path d="M43.4,17.7c2.7-3.9,10.3-.3,4.1,2.4.3.7,1.2.9,1.6,1.5,1.4,3-1.5,4.5-3.9,2.7-.6-.4-.7-1.1-1.2-1.3.5,5.7-5.8,4.6-3.8-.6-1.4.6-5.9,0-4.3-2.1,1-1.3,4-3.1,5.8-2.6-.7-.6-3.8-5.3-4.7-4.4.1,1.8,1.5,2.2,2.6,3.2.3.3.8.3.7,1-2.1-.7-3.5-2.3-4.1-4.4.5,0,1-.3,1.6-.2,2.1.2,3.3,4.4,5.2,5,.4-2,.8-4.6-1.2-5.9-.7,1.7.6,3.1.4,4.7-3.9-8.5,3.5-5.5,1.3,1.2h0ZM44.6,19.7c1.2.3,5.4-.3,4.7-2.2-1.3-1.2-4.2-1.9-4.7.4l2.7-.9-1.8,1.5,1.8.3c-.7,0-2.8-.3-2.7.9ZM41.6,19.4c.2-.1.5-.8,0-1-.4-.2-1.7-.2-2.2,0-.6.2-.6.8-.9,1-.8.5-2.5.7-2.2,2.1,1.9,1.1,4.8.7,5.6-1.5-1.3-.2-2.3.9-3.5,1.1-.3,0-.9.3-.6-.3.4-.9,2.9-.6,3.8-1.4h0ZM44,18.5h-1.8l.3,1.6,1.5-.2v-1.4s0,0,0,0ZM43.7,20.9c-.1,1.8,3.8,5.1,4.9,3s-1.8-3.7-3.7-3.6c-.8.6,2.6,1.6,2.7,1.9l-.7,1c-.8-.9-1.7-2.3-3.1-2.4ZM42.8,20.9c-2.4.5-3.5,3.9-1.3,5.3,2,.5,2.2-3.4,1.6-4.7-.7.1-.4,1.4-.6,1.9,0,.2-1,.4-.6,1.4-2.5-.3,1.2-3.5.9-3.9h0Z"/>
    <path d="M133.6,86.8c4.2,2.4,1.2,10.3-2,4.3-.7.3-.7,1.3-1.4,1.7-2.8,1.6-4.6-1.1-3.1-3.7.4-.7,1-.8,1.2-1.3-5.6,1-5.1-5.4.2-3.9-.8-1.4-.5-5.9,1.7-4.5,1.4.9,3.4,3.7,3.2,5.5.6-.8,4.9-4.3,4-5.1-1.7.3-2.1,1.7-2.9,2.9-.3.3-.2.8-.9.8.5-2.2,2-3.7,4-4.5,0,.5.4,1,.4,1.5,0,2.1-4,3.7-4.5,5.7,2,.2,4.6.4,5.8-1.7-1.8-.6-3,.9-4.7.9,8.1-4.7,5.8,3-1.1,1.4h0ZM131.7,88.1c-.2,1.2.8,5.3,2.6,4.5,1.1-1.4,1.5-4.4-.8-4.7l1.1,2.6-1.6-1.6v1.8c-.3-.7,0-2.8-1.3-2.6h0ZM131.8,85.1c.2.2.8.4,1,0,.2-.4,0-1.7-.1-2.2-.2-.6-.9-.5-1.1-.8-.6-.8-.9-2.4-2.3-2.1-.9,2-.3,4.8,2,5.4,0-1.3-1.1-2.2-1.4-3.4,0-.3-.4-.9.3-.7,1,.3.9,2.8,1.7,3.6h0ZM132.8,87.4l-.2-1.8-1.6.4.4,1.4s1.4,0,1.4,0ZM130.4,87.3c-1.8,0-4.7,4.3-2.5,5.1,2.2.8,3.5-2.2,3.2-4-.6-.7-1.4,2.7-1.7,2.8l-1.1-.6c.8-.9,2.2-1.9,2.1-3.3h0ZM130.3,86.5c-.7-2.4-4.2-3.2-5.4-.8-.3,2,3.6,1.9,4.8,1.1-.2-.7-1.4-.3-1.9-.4-.2,0-.5-.9-1.4-.4,0-2.5,3.6.9,3.9.5h0Z"/>
    <path d="M115.5,182.4c-1.3,4.6-9.7,3.7-4.7-.9-.5-.6-1.4-.4-2-.9-2.3-2.3,0-4.7,2.8-3.9.7.2,1,.8,1.6.9-2.3-5.2,4-6.2,3.8-.7,1.1-1.1,5.6-1.9,4.8.5-.5,1.6-2.8,4.2-4.6,4.4.9.4,5.3,3.7,5.9,2.6-.7-1.6-2.2-1.6-3.5-2.1-.4-.2-.9,0-.9-.7,2.2,0,4.1,1,5.4,2.8-.5.2-.9.6-1.4.7-2,.5-4.5-3-6.6-2.9.3,2,.8,4.6,3.1,5.2,0-1.9-1.6-2.7-2-4.3,6.5,6.7-1.5,6.4-1.7-.7h0ZM113.7,180.9c-1.2.1-5,2-3.7,3.6,1.6.7,4.6.4,4.3-1.9l-2.2,1.7,1.2-2-1.8.3c.7-.3,2.7-.6,2.2-1.7h0ZM116.7,180.2c-.1.2-.2.9.2.9.5,0,1.7-.4,2.1-.6.5-.4.3-1,.5-1.3.6-.8,2.1-1.5,1.4-2.8-2.1-.4-4.7.9-4.8,3.2,1.3-.3,1.9-1.6,3-2.2.3-.1.7-.6.7.1,0,1-2.5,1.6-3.1,2.6h0ZM114.7,181.8l1.7-.6-.8-1.5-1.3.7.4,1.4h0ZM114.2,179.5c-.5-1.7-5.3-3.6-5.6-1.2s2.9,2.8,4.7,2.1c.5-.8-3-.7-3.2-.9l.4-1.2c1.1.6,2.3,1.6,3.7,1.2h0ZM115,179.2c2.1-1.3,2.1-4.8-.6-5.4-2,.2-.9,4,0,4.9.6-.4,0-1.4,0-1.9s.8-.7,0-1.5c2.5-.5,0,3.7.4,3.9h0Z"/>
    <path d="M59.6,102.7c2-1.8,6-1.4,5.9,1.8,2.6-.5,6.1,1.4,4.1,4.3-1.1,1.7-2,1.2-3.2,1.8-.8.4-1.1,1.5-2.5,1.8-.8.2-2-.6-2.6-.4-.4,0-.9.9-1.5,1.2-2.4,1.3-4.2-.7-4.7-.6-1,.2-2.7,1.7-4.8,1.7-2.3,0-2-1.2-2.8-1.6-.4-.2-1.5-.2-2.2-.4-2.2-.7-2-2.3-.7-3.9l-2-1.3c1.1-1.1.5-1.1.6-2,.3-2.7,3.1-2.2,5-1.4-1.7-3,1.1-4.8,3-2.1-3.2-1.5-3.1.2-2.1,2.8.2.4.5.2-.2.7-.9-.8-2.7-2.2-3.9-1.6-2.2,1.1.3,2.8-1.6,3.5l2.7,1c.6.7-2.7,1.1-1.5,2.8,1.3,2,3.4.3,4,.4.9.1-.5,1.1.2,1.7,1.5,1.4,6.3-.8,7.5-2.3v1.5c2,1.5,4.2.1,5.3-1.8.8-.2,0,.7.8,1,2,.9,2.5-.6,3.7-1.2,1.8-1,4.5-1.3,3.3-4.2l-.9.2c-.2.6-.4,1.4-1.2,1.3-.1-.9,1.4-1.1.6-1.9-1.1-1.2-3,.4-3.3.2,1.6-2.7-2.3-4.6-4.1-2.8-.6.6-.4,1.6-1.2,1.9-.3-2-.8-4.3-3.2-4.7-1.9-.3-2.2,2.1-2.5,3.4,0,.5.2.5-.6.4l-.9-2.4.7.6c1.5-4,5.8-3.2,6.7.6h0Z"/>
    <path d="M98.3,16.8c-2.2-1.5-6.1-.5-5.6,2.7-2.7,0-5.8,2.4-3.4,4.9,1.4,1.5,2.1.9,3.5,1.2.8.2,1.4,1.3,2.8,1.4.9,0,1.8-.9,2.5-.8.4,0,1.1.7,1.7,1,2.6.9,4-1.4,4.6-1.4,1,0,2.9,1.2,5,.9,2.2-.3,1.8-1.5,2.5-2.1.4-.3,1.5-.4,2.1-.8,2.1-1.1,1.6-2.6,0-3.9l1.8-1.6c-1.2-.9-.6-1-.9-1.9-.8-2.6-3.4-1.7-5.1-.6,1.2-3.2-1.8-4.6-3.2-1.6,2.9-2,3.1-.3,2.5,2.5,0,.4-.4.3.3.7.8-.9,2.3-2.6,3.6-2.2,2.3.7.2,2.8,2.1,3.2l-2.4,1.5c-.5.8,2.8.7,1.9,2.5-1,2.2-3.3.9-3.9,1.1-.9.3.6,1,0,1.7-1.3,1.6-6.3.2-7.7-1.1l.3,1.5c-1.7,1.8-4.2.8-5.6-.9-.8,0,0,.7-.6,1.1-1.9,1.2-2.5-.2-3.8-.6-1.9-.7-4.6-.5-4-3.6h.9c.2.6.6,1.3,1.3,1.1,0-.9-1.5-.8-.9-1.8.9-1.4,3-.1,3.3-.4-2-2.5,1.5-4.9,3.6-3.4.7.5.7,1.5,1.5,1.7,0-2,0-4.4,2.4-5.1,1.8-.6,2.5,1.7,3,2.9.2.4-.1.5.6.3l.5-2.5-.6.7c-2.2-3.7-6.3-2.2-6.5,1.7h0Z"/>
    <path d="M47.1,176.9c-2.1-3.5,2.1-3.2,2.4-3.7.2-.3-.2-1.9,1.1-2.8s2-.2,2.6-.4c.2,0,0-.5.1-.7,1.6-1.1,4.1-.3,4.5,1.7,0,.5-.2,1.1,0,1.4.2.9,1.6,1,.6,3.1-.3.7-2.2,2.2-1.7.9,0,0,.5-.2.6-.5,1.2-2.4.4-1.8-1.4-.8l1.3-1.6h-.7c0,0,.2-1.2.2-1.2l-.8.3-.3-.8c.1-.3,2.9,0,.8-1.5-2.2-1.6-2,1.6-2.5,1.8-1-.4-1.6-2-2.8-1.1-1.7,1.3-.1,3.1-.5,3.7-.9,1.1-2.2-.6-3,0-1.3.9,1.1,2.5.6,3.1-.3.4-2.1,0-2.8,1.5-.8,1.9,2.2,2,3.2.7l-.6,1.8c1.2-.5,2.5-.5,2.9-2,.1,0,1,.6,1.3.6,2.1.2,3.7-3.7,4.1-3.5.7,1.9-2.2,4.3-3.8,4.4-.5,0-1.2-.3-1.4-.3s-.5.7-1,.9c-4.2,1.9-8.6-2.6-3.2-4.9h0Z"/>
    <path d="M154.7,70.2c.5,4-3.2,2.1-3.7,2.4-.3.2-.5,1.9-2.2,2.1s-1.9-.6-2.6-.7c-.2,0-.1.5-.4.6-1.9.4-3.8-1.3-3.4-3.3.1-.5.6-.9.6-1.2.1-.9-1.1-1.6.7-3,.6-.5,2.9-1.1,1.9-.2,0,0-.5,0-.7.2-2,1.7-1.1,1.5,1,1.3l-1.8.9.6.3-.7,1h.9c0,0,0,.9,0,.9-.2.2-2.7-1.1-1.4,1.1,1.4,2.4,2.5-.7,3-.7.7.8.7,2.5,2.1,2.1,2.1-.5,1.3-2.8,2-3.2,1.3-.7,1.8,1.4,2.7,1.2,1.5-.4,0-2.7.7-3.1.5-.3,1.9.9,3.1-.3,1.5-1.5-1.2-2.7-2.7-1.9l1.3-1.4c-1.3,0-2.5-.5-3.5.7-.1,0-.7-.9-1-1.1-1.8-1-4.9,2-5.1,1.6.1-2,3.8-3,5.3-2.6.5.2.9.8,1.2.8s.8-.4,1.2-.4c4.6,0,6.9,5.8,1,5.7h0Z"/>
    <path d="M49.6,79.3c-.8,2.2,1.3,3.2-.2,5.3-2.5,3.8-8.5,0-5.5-3.4.8-.8,2.6-1,2.4-2.8-11,.8-4.2-9.2,3.1-8.6s8,12.5.2,9.5h0ZM48.9,70.5c-2.6,0-8.5,2.5-7.5,5.9.8,2.5,4.2.9,6.2,1.2s4.7,3.4,6.2.4-1.4-7.5-4.8-7.5h0ZM47.2,78.4c0,2.6-1.5,2.4-2.7,3.4-2.1,2,1.7,4.8,3.8,2.9,1.7-1.4,0-4.1.2-6.1,0,0-1.3-.3-1.3-.3Z"/>
    <path d="M136.2,97.1c6.8,2.5,8.8,14.4-.8,9.1-1,1.6.6,2.5,1,3.6,1.3,4.3-5.7,5.3-6.4.8-.4-2.6,1.9-2.5,2.1-4.9-8.4-.5-2.5-11,4.2-8.5h0ZM128.8,102.7c0,3.3,3.8,1.7,5.8,2.2s4.4,3.4,6.1,1.5c2.3-2.6-1.9-7.4-4.3-8.5-3.2-1.4-7.6,1.4-7.6,4.8h0ZM133.2,105.5c-.6,1.9-3.3,3.6-2.4,5.6,1.2,2.6,5.8,1.6,4.7-1.1-.6-1.4-2.1-1.9-1-4.2l-1.3-.3h0Z"/>
    <path d="M82.7,117.3c3.6-4.6,7.5.5,2.5,3.4l1.8.4c1.1,2.2-.9,2.9-2.8,2.4.5,1.2.3,3.2-1.3,3.2-1.9,0-1.5-4.2-1.8-4.2-.6,1.1-1,1.8-2.1,2.3-1.5.8-2.7-.2-1.2-1.3l.4.7h.6c.8-1.7,4.2-3,.4-3.7-1.2-.2-2.9.4-1.5,1.4l-1,.7c-1.6-1.5.3-2.8,1.9-2.9.6,0,1.2.5,1.7.2-2.9-2.7,1-8.1,2.4-2.7h0ZM80.7,115.6c-1.6.3-.5,4,.5,4.8.8-.8,1.2-5.1-.5-4.8ZM85.4,116.2c-1.7,0-3.3,2.9-3.2,4.6,2.1.2,4.7-1.3,4.6-3.6-.2-.5-.9-1-1.4-1h0ZM81.8,122.3c.2,1.2-.3,3.9,1.5,3.7,1.5-1-.9-4.4-1.5-3.7ZM85.7,123.1c2.6-.9-1.7-2.9-3-1.4,0,.5,2.6,1.6,3,1.4Z"/>
    <path d="M152.2,33.2c3.2-.5,9.3.9,9.4,5,0,3.4-4.4,2.9-4.4,3.6.5,2,4.4,0,3.7,2.8-.6,2.3-3.6,2.6-5.6,2.3-3.6-.4-2.4-2.6-2.4-5.3-.7-.9-7.1.9-6-4.2.5-2.4,3.2-3.8,5.4-4.2h0ZM160.3,39.8c1-1.2,0-3.1-.9-4.1-2.5-2.3-7.4-2.6-10.1-.6-.5.3-1.8,2.4-1.8,2.9-.5,3.5,5.4,2.4,7.5,2.5,1.5,0,4.1.9,5.4-.7h0ZM156.2,41.4c-.4-.5-1.9-.4-2.6-.4.2,1.3-.7,3.3.1,4.4,1.4,1.7,6.9,1.1,6.2-1.8-.5-.8-2.5.4-3.4-1.1-.2-.4-.2-1-.4-1.2Z"/>
    <path d="M129.6,162.4c1.2-.9,2.3-2.4,3.8-1.3,1.1,2.1-1.1,2.6-2.7,3,1.1.7,2.7.3,2.9,2-1.2,1.9-2.6-.1-3.8-1,.1,1.8.9,3.6-1.3,4.3l-.9-.5v-1.5c1.7,1.6,1.4-.8,1.3-2.1-.9-.2-.9.9-1.4,1.2-3.2,2.2-4.7-2.9,0-2.4l-1.7-2.6c.4-3.3,3.7-1.7,3.8.8h0ZM128.7,163.3c.2-1.2-.1-2.6-1.6-2.7-1.2.3,1.2,3.2,1.6,2.7ZM127.8,164.8c-.5,0-1,0-1.5.1-2.3.7.7,2.6,1.5-.1Z"/>
    <path d="M127.7,181.6c1.3-.7,2.3,2.1,3.9,1.7.9-.2,3.3-2.1,4.8-2.6,3.5-1.1,6.7,2.2,8.4,4.9s-.5,3.8-2.8,4.7c-3.8,1.3-8.9,1.1-10.1-3.6-.2-.7,0-2-.2-2.3-.6-.7-3.5-1.4-3.9-2.9h0ZM144.9,187.5c0-.4-1.7-3.5-2.1-4-2.9-3.4-7.9-3-10.1.8l2.6.7,3.6-2.2c.3.4-.6.9-.9,1.1-.6.4-1.2.7-1.8,1v.9c1.8.1,3.5,1.1,4.9-.4.8.7-.4.7-.5,1.3.9.4,2.7.2,3,1.3l-3.1-.7c0,.6,1,1.3,0,1.8-.7-.5-.3-1.6-.9-2-.3-.2-3.1-1-3.3-.9l.8,2.8c-.9-.6-.9-2.2-1.4-2.8-.6-.7-2.5-1-3.4-1.4-.4,2.9,1.3,4.9,4,5.7,1.8.5,1.9-.3,3.2-.6.6-.1,1.3.3,2.4,0,.7-.2,2.7-1.5,2.9-2.2h0Z"/>
    <path d="M71.4,52.6c-.7,1.3-3-.5-4.2.6-.7.7-1.7,3.5-2.7,4.8-2.3,2.9-6.8,1.7-9.7.3s-1.7-3.5-.1-5.4c2.5-3.2,7-5.7,10.5-2.4.5.5,1.1,1.7,1.4,1.8.9.2,3.6-.7,4.8.3h0ZM53.7,56.8c.2.4,3.3,2,3.9,2.2,4.2,1.3,8.3-1.7,8.1-6.1l-2.6.8-1.8,3.8c-.5-.1,0-1.1.2-1.4.3-.7.7-1.2,1-1.8l-.5-.7c-1.5.8-3.5.9-3.8,3-1.1-.2,0-.8-.3-1.4-1,0-2.4,1.3-3.2.5l3-1.1c-.4-.5-1.5-.5-1-1.5.8,0,1.1,1.1,1.8,1.2.3,0,3.2-.9,3.2-1l-2.1-1.9c1,0,2,1.4,2.7,1.6.9.2,2.7-.5,3.6-.6-1.2-2.7-3.7-3.5-6.4-2.6-1.8.6-1.5,1.3-2.5,2.2-.5.5-1.2.4-2,1.3-.5.6-1.5,2.8-1.2,3.4h0Z"/>
    <path d="M79.1,169.2c4.2-.8,4.6,4.5.3,3.9l.6,1.6c-.3,1-3.4,1.9-4.3,1.1-.8-.8-.3-1.8-.1-2.7-1,.2-1.1,2-1.9,2.1-2.3,0-5-3.8-1.7-4.4-.4-.6-1.3-.7-1.4-1.7-.3-2.5,3.2-2,4.6-1.3.6-3.9,6.8-1.2,3.8,1.5h0ZM79,167c-.5-.6-2.3-1-2.9-.2-1,1.2.9,2.2.3,3.4.3.2,4-1.6,2.6-3.2ZM74,174.2c.2-.1,1-1.9,1.5-2.2l-1.2-1.2,1.8-.9c-.7-1.9-2.3-2.5-4.2-2.2-2.2,1.7,1.1,2.3,1,3.1,0,.5-1,0-1.5.6-1.8,1.7,1.4,3.5,2.6,2.8h0ZM79.3,169.9c-.5,0-2.2.6-2,1.3,0,.1,2.1,1.4,2.3,1.5,2.7.9,3.4-3.4-.4-2.8ZM75.8,175.4c3.8,1,4.9-2.5.9-3.5l-.9,3.5Z"/>
    <path d="M12.3,65.2c3.9.6.2,6.3-2.4,3.4-.8,1.4-3.4,3.7-4.6,1.5-.5-.9.3-1.4.2-2.2-3.2,1.3-3.1-3.4-1.1-4.6.7-.4,1.8,1.1,2.7.7-.6-.7-1.6-1.2-1.4-2.3.3-1.1,3.4-2.2,4.2-1.5l.4,1.6c3.2-2.9,5.8,1.7,1.9,3.4h0ZM9.5,66c1.1.7.1,2.5,1.6,3,.9.3,2.2-1.1,2.3-1.8.3-2.1-3.8-1.5-3.9-1.2ZM5.2,63.9c-1.4,0-3.1,3.4-.6,3.8.7.1,1.2-.7,1.5-.4.5.5-1.9,2.9.9,3.1,1.8-.8,2.7-2.2,2.3-4.2l-2,.2.3-1.6c-.6,0-2.2-1-2.5-.9h0ZM10.8,62c-.2.2-1.2,2.4-1.1,2.6.2.6,1.9.1,2.4,0,3.5-1.6.5-4.7-1.2-2.5ZM8.8,64.3c2.8-3.1,0-5.4-2.7-2.5l2.7,2.5Z"/>
    <path d="M145.1,153.5c1.6-.8,4-.2,3.5,1.9,0,.4-1.1,1.7-1.4,1.9-.7.3-1.3,0-1.9.1-.4,0-.6,1.8-1.7,1-.1-.1-.2-.5-.4-.7-.5-.3-2.3-.3-2.7-1.3-1-2.1.6-4.1,2.8-3.9-1.5-2.3,1.4-4.8,2.2-2.1.4,1.2-.6,1.8-.5,3h0ZM141.6,156.7c.9.6,1.8.3,2.4-.5.9-4.2-4.2-3.3-2.4.5ZM145.4,154.2l.2,2.2c2.9,1.5,3.2-3.7-.2-2.2Z"/>
    <path d="M52.5,127.9l3-.3c-.6,1-2.2.9-3.2,1.2.5.9,2.1.5,2.9.6-.4,1.2-2.8.3-3.2.6l.6,2.1-1.7-1.8c-.7-.1-1.4,1.8-2.5,1.5l1.5-2.4-2.1-.6,2.1-.2c0-.8-1.8-1.4-1.5-2.5l2.1,1.8v-3.3c.6.1.5.6.6,1s-.3,1.6.3,1.6c.2-.7.6-1.3,1-1.8,3.8-4.1,2.5.6.2,2.4h0Z"/>
    <path d="M92.4,152.9l-1.5,2.1,3.5-.9c0,.8,0,.5-.4.6-1,.2-1.9.2-2.8.6.7.8,2.6.4,3.5.6.1,1.4-2.2,0-2.9.3l2.4,2.8c-.2.9-2.3-.3-2.6-.6-.4-.3-.6-1.1-1.2-1.3-.4.8,1,3.1-.3,3l-.3-3.6c-1,.3-.6,2.1-1.8,2.1l1.2-2.2-.9-.6c.7-.4.4-.9.3-1.6l1.8.6c0-.7,1.5-2.2,2.1-1.8h0Z"/>
    <path d="M32.6,49.1c.8,0,2.2,1.9,2.4,2.5.6,2.2-1.5,4.8-2.7,6.6-1.2-1.9-4-4.4-3-6.8.2-.6,2.7-2.3,3.3-2.3h0ZM33.8,53.7c.7-.7,0-4.8-2.3-3.3-3.7,2.4-.8,4,.6,6.7l1.5-2.5-1.5.3c.3-.7,1.4-.8,1.7-1.1Z"/>
    <path d="M59.1,38.8c.2-.2,0-2,1.7-2.3,3.2-.6,2.8,6.9.3,6.9-2,0-6.3-1.7-4.1-4.2,1-1.1,2-.3,2.1-.4ZM59.7,39.4c-2.9-1.1-3.8,1.7-.9,2.8,2.4.9,3.2.5,3.5-2.1.5-3.6-2.3-3.8-2.6-.7h0Z"/>
    <path d="M98.3,171.2c.6,0,1.4-2,3.2-.3,1.6,1.5-2.2,5.7-3.6,5.6-1.7,0-5.1-5.5-1.6-6.1,1.1-.2,1.4.7,2,.8h0ZM98.5,172.1l-1.6-1.3c-3,1-.6,3.8,1,5,1.9-.5,5.3-4,2.2-4.9l-1.6,1.3h0Z"/>
    <path d="M131.2,71.8c3.1,3.3-4.3,4.7-5.5,2.8-.5-.9-.2-4.1.8-4.7,1.7-1,1.7.8,2.5,1.2.5.3,1.4-.2,2.2.7h0ZM126.7,74.5c.3.2,3.1.2,3.6,0,2-1,.5-3.5-1.6-2.3l-.5-1.4c-2.2-1.4-2.5,3.1-1.4,3.7Z"/>
    <path d="M64.6,190.5l-1.9-2.4.4,1.9h-.6c.3-.5-1.2-3.7-1.8-3.1.2,1.6-1.4,3.1-1.7,4.1-.2.7,0,1.4-.5,2.1-1,1.4-2.5.3-2-1.1s1.6-.7,2.2-1.2c.2-.2,2-3.9,2-4.1,0-.5-2.7-1.1-2-1.6,3.1.4,5.6,2,5.9,5.3h0Z"/>
    <path d="M115.9,111.3l-3,.4,1.9.6-.2.6c-.4-.6-3.9-1-3.7-.1,1.4.6,1.9,2.8,2.6,3.6.5.6,1.2.6,1.6,1.6.6,1.6-1.1,2.3-2,1.2s.2-1.8.1-2.5c0-.3-2.3-3.7-2.5-3.8-.4-.3-2.3,1.8-2.4.9,1.9-2.4,4.6-3.8,7.6-2.3h0Z"/>
    <path d="M136,33.3v1.2c.6,0,1.1-.2.9.6l-.9.2v1c-.4-1.2-1.7-.5-1.5-1.6l1.5-1.3h0Z"/>
    <path d="M27.7,72.4l-1.1.5c.1.6.6.9-.2,1l-.5-.8-1,.2c1-.7,0-1.7,1-1.8l1.8.9h0Z"/>
    <g>
      <path d="M101.1,67.6l2.7.9-2.9-.3c-.2.7.1.5.4.7.6.4,1.6.7,2,1.4l-2.5-.9c-1.9,1.5-1.4,3.2-.9,5.3,1.5,6.6,7.4,9,10.7,14.5.4-.3.4-.6.5-1,.3-3.2-4.1-8.4-5.3-11.9s-.9-9.4,2.4-11.6c4.1-2.7,3.2,3.2,3.4,5.2.9,8.8,10.8,13.8,4.7,24-2,3.3-3.3,2.7-5.7,4.4-.7.5-1,1.4-1.6,2-1.2,1.2-4,2.5-5.7,2.6-1,0-2.1-.4-3.2-.3-.6,0-.4.6-.6.6-1.9.5-2.9-1.1-3.2-1.1,0,0-.8.6-1.3.7-2.7.7-3,.2-5.2-.2-.8-.1-1.7.5-2.9.2-.8-.2-1.2-1-1.6-1.1-1.4-.3-4.8,1.8-4.8-2,0-2.7.2-6.2.3-8.9.3-6.1,1.8-12,3.3-17.9.6,0,.3,1.3.3,1.6-.6,4.2-2.5,8.4-2.6,12.8.3,1.6-1,9.4,0,10.1.3.2.9,0,.9.3-3.2,2,.1,5.2,2.4,3.1,1.7-1.5,2.1-10.8,2-13.2,0-.6-.4-1.1-.5-1.5,0-.8,0-2.8.6-3.4.3.3.4.9.4,1.3.4,3.8.3,10.6-.6,14.2-.2.8-1.2,1.4-1.2,2.4,0,1.2,2.6,1.7,3.6,1.2,0-1.7,1.4-2.3,2-3.3,1-2.1,1.1-5.8,1.2-8.1.7.2.6,1.1.6,1.6,0,2.1-.9,4.5-1.2,6.5l.7-.2.2.6c-3.3.5-3.5,3.6.3,3.4s2.7-2.3,4.2-3.4c.6-.4,2.7-1.1,2.5.3-1.1-.6-2.8.7-2.7,1.9,0,1.1,2.1,1.4,2.1.2l.7.6c4.1,0,7.3-.4,9.4-4.3,4.5-8.6-4.9-12.3-8.4-18.1-1.4-2.3-2.5-5.6-2-8.2-2,.5-3.6,1.5-5.8,1.7-3.8.4-9.4-1.4-11.5-4.7-.9-1.5-.3-2.4-2.5-2.1l1.8-.7-1.8-.9c0-.5,2.1.4,1.8-.7l-1.8-.6h1.9c.6-1.2,1.4-2.1,2-3.4.5-1.1,1.8-6.5,3.3-6.4,1.5.2,2.6,3.3,3.4,3.7.6.3,1.4,0,2.2.2.7.1,2.2.7,2.8.7,1.1,0,3.4-2.5,4.5-2.8,1.3-.4,1.4,2.7,1.5,3.6,0,1-.3,1.9-.3,2.6.1,1.8.9,3.8.6,5.8h0ZM97.8,67c4.3,1.1,2.3-1.8,2.1-4.3-.2-2,.2-4.1-.2-6.1-.3-.5-.7,0-1.1.2-.9.5-1.9,1.7-2.7,2-1.4.6-5-1-6.7-.8-.9-.4-1.9-4.1-3.3-3.3-1.8,2.8-2,6.3-4.1,8.9l2.1.7-2.1.4,2.1.7-2.4-.3c-.2,1.2,1.8.4,2.4.6l-2.4.6c1.5,4.3,7.7,6.7,11.9,6.2,2-.2,5.6-1.8,6.1-3.8l-2.4-.9c.7,0,1.4.3,2.1.5.4,0,1,.4.9-.3l-2.4-1h0ZM110.6,97.3c5.1-1.8,6.8-6.3,6.5-11.4-.3-5.4-5.1-8.6-6-14-.3-1.8.7-8.4-2.4-6.6-3.7,2.1-3.1,8.6-1.8,11.9s5.8,7.6,4.8,11.5c-.1.6-.7,1.1-.8,1.6-.1,1.1.4,3.1.3,4.4,0,1-.4,1.6-.6,2.5Z"/>
      <path d="M101.1,90.2c-.4,1.3-1.5,1.7-2.1,3.1-.8,1.8-.3,2.8-.6,4.4,0,.5-.1,1-.8.8.5-2.8-.2-7.6,3.5-8.3h0Z"/>
      <path d="M87.2,56.1c.1,0,1.2,2.1.9,2.3l-.9-.2-.9-1,.3,1.5h-.9l.4-2.4c.2-.4.7-.4,1-.3Z"/>
      <path d="M96.9,65.1c.1.1.2.3.2.5l-.3.6-2.5-.7.6-.9c.6-.4,1.6,0,2,.5Z"/>
      <path d="M89.5,68.9c.2,0,.2.8.6,1,.7.3,1.5,0,2.1.3-2,1.7-2.6-1.2-4.4-.7-.4-.9,1.4-.7,1.7-.5h0Z"/>
      <path d="M99,58.2l-.3,2.4c-1.2.2-.1-1.2-.3-1.8l-1.5,1.2c0-1.1,1.1-1.8,2.1-1.8h0Z"/>
      <path d="M91.3,66.4c.2,1-.7,1.4-1.5,1.8l-.6-1.8h2.1Z"/>
      <path d="M87.8,64.4c-.5.1-.7-.4-1.1-.5-.5-.1-1.3.6-1.2-.7,1.2-.5,2.4-.4,2.4,1.2Z"/>
    </g>
    <path d="M37.6,0c-2.3,4.8-7.1,8.5-12.4,9.5-.6-.9,1.5-1.6,1.6-1.8s0-.8-.4-.6c-.9.3-2.1,1.8-2.4,2.7l-4.2.3,1.8-1.8c-.5,0-1.5.5-1.8.7-.3.3-.2.9-.3,1,0,0-1.8.3-2.2.4-3.6.3-8.8-1.1-10.7-4.3-.4-.7-1.4-4.3-1.4-5.1,0,0,0-.5.2-1h-.9c-.3,2.4.3,5.1,1.9,7.1,5.5,7,22,4,27.9-1.3,2.2-2,2.8-3.7,4.3-5.8h-1,0Z"/>
    <g>
      <path d="M5.7,197.9c.6-1.8,2.8-3.3,4.6-3.4,1.6-.1,1.7,1.6,3.1,2.4.8.5,1.9.8,2.7,1,2.8.7,5.2-.2,8-.4.7,0,4.6-.3,4.9,0,.7,1.1-2.1,1.2-1.6,2.4.8,0,2-1.8,2.1-1.8.3,0,1.1.6,2,.6,1.8,0,3.4-1.3,5.3-1l2-2c-.2,1.5-.7,3-1.3,4.4h1s0,0,0-.1c.4-.5,1.5-.5,1.2-1.6h-1.2c.9-.6,1.6-1.5,1.1-2.8-.2-.5-.9-.6-1.2-.9-.5-.7.3-2.6.3-3.6.2-3.7-.4-7.8-.6-11.5-.3-4.7.3-9.2-2-13.6,1-1.4,2.5-2.2,3.8-3.3.6-.5.7-1.2,1.8-1.5h-.6c0-.1.9-.7.9-.7l-.6-1.2.9-.3c-.4,0-.6-.2-.8-.5-.5-.6-2.1-3.1-2.3-3.7-.3-1.3-.8-8.6-2.1-8.9-.9.3-1.8,1-2.5,1.6-.9.8-2.8,3.3-3.3,3.6-.2.1-3.2.7-3.6.7-1.9,0-3.1-2.1-4.6-3.1-.6-.4-3.2-2.1-3.7-1.4-.1,1.4-.4,2.9-.5,4.3,0,2.9.7,7.6-.3,10.3-.3.8-1.1.2-1.1.8l.9.9.9-.3-.3.9c1.1.3,3.6,1.2,3.5,2.4-.5,5-6.9,8.8-9.4,13.2-2.1,3.8-3.8,9.6-1.8,13.7-4.2,0-6.6,3-7.1,6.5h.9c.2-.9.5-2,.6-2.2h0ZM20.5,164.2l1.2-.9h-2.1l1.8-.9c-.1-.9-1.7-.2-1.8-.3-.3-1.3.4-2.6.4-3.7.1-3.4-1-6.9.2-10.2,2.8.8,4.1,3.3,6.4,4.7,1-.5,3-1.2,4.1-1.1.5,0,.7.6,1,.4.5-.2,4-5.9,5.3-4.9,1.4,3.8.8,8,3.5,11.1l-1.8.7,2.1.4-2.1.4,1.8.3c-1.9,2-4.9,4.7-7.3,6.1-4.5,2.5-8.3-1.5-12.8-2.3h0ZM14.2,180c2.5-3.8,7-6.1,8.6-10.6.3-1,.2-3.2,1.3-2.9,2.2.6,3.7,1.9,6.3,1.9,2.4,0,3.5-1.5,5.5-2.3.3,1.8.9,3.4,1.2,5.2.9,5.9.8,14,.7,20.1,0,2.2.4,5.7-2.5,5.5l-1.5-8.7c1.3-.2,1.3-1.1,1.5-2.2-.9,0-1.2,1.1-1.2,1.8-1.2-.7.2-2.9,0-4.1-1.2-.2-.4,2.1-1.2,2.4l-2.5-5.9h-.7c.9,2.5,2.1,4.9,2.9,7.3.4,1.4,2.1,8,1.8,9-.4,1.5-3.1,1.1-4.3,1-1.2-1.8-1.4-4-2.6-5.8-1.9-2.8-5.5-3.4-6.8-6.8l.4,2.4c-.6-.2-2.8-1.3-2.7,0,3.3,0,8.3,3.9,9.2,6.9.1.4.4,1.8.2,2,0,0-.7,0-1,0-.5.2-.9,1.4-2.1,0-.2.8-1.4.8-2.1.9-2.2.2-6.9.5-8.7-.7-1-.7-2.4-3-2.6-4.2-.7-4.1.5-8.4,2.8-11.9h0Z"/>
      <path d="M24.7,153.7c-.7-1.5-1.6-3.9-3.5-3.7-.2.2-.3,5.1.6,5.3v-4.4c1.1.2,2.5,2.2,1.8,3.3l1.2-.4h0Z"/>
      <path d="M34.4,152.7c0-1.3.7-2.6,1.8-3.3,0,1,1,3.5-.3,3.6l.7.9c.8,0,.2-3.6.2-4.3-.4-2.7-3.1,1.5-3.3,2.7,0,.8.5.4.9.4h0Z"/>
      <path d="M23.6,160.4l.2,1.4,3,.7c.6-1.4-2.5-3-3.1-2.1Z"/>
      <path d="M36.4,158.6c-1.3.6-2.1,1.4-2.5,2.8.9,1.1,1.1-.2,1.7-.7.3-.2,1.1-.5,1.2-.6.2-.4,0-1.1-.4-1.4Z"/>
      <path d="M31.8,163.9h-2.2c-.6.9.7,1.2,1.2,1.8,0,0,1-1.8,1-1.8Z"/>
    </g>
    <g>
      <path d="M130.6,200c0-1.2.3-2.6.2-3.3,0-.6,0-.5-.6-.4.1,1.3-.3,2.6-.9,3.7h1.2,0Z"/>
      <path d="M126.3,200c1.5-2,3.5-3.7,4.5-6.1,1.6,2.1,3.6,3.8,5.5,5.6.2.2.4.3.4.5h.9c-2.8-2.2-4.7-4.9-6.6-7.9-1.4,3.1-3.1,5.8-5.7,7.9h1,0Z"/>
    </g>
    <path d="M64.9,82.3l1.6,2,.2-3.7c.8.2.5,0,.4.6-.1,1-.3,1.8-.2,2.9,1-.4,1.2-2.3,1.6-3.2,1.3.3-.7,2.1-.6,2.9l3.4-1.5c.8.5-.9,2.1-1.3,2.4-.4.3-1.3.2-1.6.8.6.6,3.3,0,2.8,1.1l-3.5-.7c0,1.1,1.9,1.2,1.5,2.3l-1.8-1.8-.8.7c-.2-.8-.8-.6-1.5-.8l1.1-1.5c-.7-.2-1.7-2.1-1.1-2.5h0Z"/>
    <path d="M140.5,59.6c0-.3-1-2-1.1-2-.5,0-1,4-1.4,2.5-.5-1.6,2.4-3.4-.4-5.2l-1.6,1.8c0-1.8,2-3,.1-4.5-.5.5-2.8,4.7-2.7,5,0,.3,1.5,2,1,2.5-.6.6-1.1-1.9-1.4-1.9-1,1-.9,2-.6,3.2-.1.4-2.1,0-1.8-1,.1-.4,1.9-.6,1.5-2h-1.8c.9-.5,2.5-.2,2.6-1.8-.3-.4-2.9,1-2.8-.2,0-.4,3-.3,3.4-.6l1.7-3.4c-.9.3-3.2,0-4,.2-.9.4-1.7,2.2-2.9,2.5l1.4-2.5c-1.6-.4-2.3.5-3.2,1.7v-1.2c-2.5,0-.8-.8.7-1.2l-.8-1.7c1.2-.1.8,1.1,1.2,1.6.3.4,2.7.6,2.7.2l-1.2-1.7c1.1,0,1.3,1.4,2.1,1.7.3,0,4.3,0,4.4-.5-.9-1.9-2.1-1.8-3.7-2.7l1.9-.4c-.4-.5-.8-1.1-1.2-1.5-.8-.7-4.1,0-3.2-1.6l2.8.6c-.5-1.2-3.3-3.3-.5-2.9,0,1,.2,1.8.9,2.5l.9-2.1h.8s-1.3,3-1.3,3l1.2,2,.8-2.1,1.1-.2c-1.1,1.7-2,3.5,0,5,1.2-1.9,2.4-3.1.7-5.2l1.4,1.2c2-.8-.5-4.1,0-4.5.7-.7,1,2.3,1.3,2.3,1-.5,1.1-2.4,2.4-2.2-.4,1.9-2.4,2.6-2.8,4.3l.6.5h1.8c-.6.9-2.6.5-3.1.9-.2.2-1.1,2-1.3,2.4-.1.2-.6.6,0,.8.2,0,2.9-.2,3.2-.3.6-.3,1.1-2,2-2.2l.6.7-1.2,1.4c0,.5,2.5.5,2.8.3.2,0,2.6-3.4,2.4-1.9l-1.6,1.7,2.4.7c-.5,1.2-2.4-.6-2.8,0-.5.8,2.4,1.8,1.1,2.5-1.4-1.4-1.9-3.1-4.2-2.3,0,.5,1.9,1.5.9,2-1.6-2.6-3-2.5-5.7-1.8.6,1.9,2.5,1.2,3.8,2.3l-2.4.4,1.2,1.8,3.4,1c-.6.8-2.3-.8-2.6-.2-.4.8,1.1,2.2,2,2.2-.4.3-.2,1.2-.9,1.3-1.6.3-.7-1-.7-1.2h0Z"/>
    <path d="M138.5,8.6c-.3-1.3,3.5,0,2.9-1.9-2.3-.8-4.1-3-5.6-4.8-.1-.2-.4-.2-.6-.2v-.6c.5,0,3,.1,2.6-.7-.1,0-.2-.2-.3-.3h-.9c0,.1,0,.2,0,.4-.6,0-1.2.4-1.9.3-1.7-.2-2-1.8-1.6,1.8-.9.3-.8-.4-1-.5,0,0-.5.3-.7,0-.6-.4-.8-1.2-.8-2.1h-1.2c-.2.4-.4.9-.6,1.3l-.8-1.2-2.2.6c.2-.2.3-.5.5-.7h-1c-.2.2-.4.4-.7.6.2,1.5,3.2,0,3.2.9-.7,1.4-1.6,2.7-2.5,4-.4.5-2.7,2.5-2.2,3h2.7c-.3,2.6-3,4.2-4.7,5.8,1.5,1.5,3.4,1.1,5.3.8.1,2.5,2.5,1.1,4.2,1.2v4.7h.6v-4.6l1.8-.4v5l.8-.5-.2-4.3c1.5,0,3.5.5,3.6-1.5.9.1,1.8.8,2.7.5.4-.1.6-.6,1-.8.7-.3,2.8-.6,3-1.1l-3.2-2.4c-.3-.5-2.1-2.1-2.1-2.3h0ZM124.3,7.8c1.7-1.7,2.8-4.2,4.1-6,.2-.2,1.6-1.6,1.8-1.4-.3,1.9,2.8,4.4,3.6,2,.2-.6-.5-1.5.4-1.4l6.4,6.2c-.9,0-2.3.6-3.1.5-.5,0-1.5-1.3-1.9-1-.1.6-.2,1.8-1,1.8-1.3-.4-1.6-1.8-2.4-2.7-.2,0-.9,1.9-1.2,2.4-.2.3,0,.7-.6.6l-1.5-3.6c-1.4,1.9-1.8,3.2-4.6,2.7h0ZM136.1,13.1c1.2,3.7-2.3,1.4-4,1.5-1.5,0-3.4,1.4-5.2.9-.3-.3,1.8-3.5,1.8-4,0-.2-.6-.6-.9-.4.2,3.2-2.7,3.9-5.3,3.3l5.9-7.5.6-.2c.3,1.1.3,2.5,1.3,3.2l1.8-2.7c.8,1,1.5,2.6,3.1,1.9.5-.3.3-1.9,1-1.6l6.4,5.9c-2.6,0-4.2,1.8-6.5-.3h0Z"/>
    <path d="M81.7,1.2c-1,.5-1.7,1.6-2.7,2.2C79.8,2.4,80,1.2,79.8,0h-.5c.3,1.9-1.3,4.1-3.1,5-2.1-1,.1-3.1.2-4.7h-.9c-.9,1.2.3,3.3-1,4.2-.7-1.1-.9-3-.5-4.5h-.6c-.2,1.1,0,2.4-.1,3.5-1-1.3-2-2.7-3.4-3.5h-3.9c-1,.6-1.7,1.6-1.1,2.9.8,1.9,3.8,1.8,3.9,2.5-2.3,0-5.8,3.9-2.8,5.3,2.1,1,4.3-1.8,4.7-1.3-.3.8-1,1.3-1.4,2.1-2.8,5.7,4.7,7.4,5.7,1.3.2-1.1,0-2.1.1-3.1.9.5,1.1,1.6,1.6,2.3,3.9,4.8,9.6-1.9,5.2-3.6-.7-.3-1.4-.3-2.2-.5-.4,0-1.6-.3-1.6-.8,2.8,0,8.7-.2,8.2-4.2-.3-2.4-2.9-2.5-4.7-1.7h0ZM65.2,1.9c1.7-3.2,4.8-1.7,6.7.6.5.6.8,1.5,1.3,2.2-1.1-.2-2.1-.9-3.1-1.5-.3-.2-1.8-1.7-1.8-.2,0,.4,4.2,1.4,4.4,2.6-1.6-.2-7.9-1.2-7.5-3.6h0ZM65.5,9.3c-.9-2.7,5-4.2,6.9-3.2,0,.9-.3.4-.7.6-.6.2-2.8.7-3.1,1.1-.3.4,0,.5.6.4,1-.3,2.2-1.5,3.4-.8-2.2.7-5.1,4.7-7,1.9h0ZM74.1,13.9c-.7,1.8-2.6,2.9-4.2,1.5-2.6-2.2,2.8-8.2,3.7-7.1l-1.1,3.7h-.9c2.5,2.8,1.5-2.3,2.7-3.6.4,1.4.4,4.2-.2,5.5h0ZM75.3,7.6c-.6.2-2-.5-2.1-1-.1-1.5,4.6-1.9,2.1,1ZM82.5,11.6c-1.6,3.4-7,0-6.6-3.3l3,2.2c.8-.6-2.9-2-2.3-3,2,.8,7.6.6,5.9,4.1h0ZM78,6.5l4.2-2-.3-.8c-1.5.9-3.1,1.9-4.9,2,1.8-1.3,6.8-6.8,8.7-3.3,1.9,3.5-5.4,4.3-7.6,4Z"/>
    <g>
      <path d="M0,151.2v1.5c1-.5,1.5-1.9,0-2.3,0,.3,0,.5,0,.8Z"/>
      <path d="M2.7,168.8H0s0-3,0-3c1.7-.4,1.3.5,1.9.9,1,.8,1.8,0,1.9-1.1-.2-.8-3.2-.3-3.8-.4,0-.6-.2-3.1.5-3.3,1.4-.4,4.1,1.3,4.7-.6.6-1.9-2.1-2.9-2.5-.9l1.8-.2c1.3.9-1.5,2.8-2.1.5l-2,.6-.3-3.8C4.1,157,3,153.1,0,154.8v.6l1.6-.5c.9.2.5,2.2-.7.9l.3.9-1.2.2v-.2S0,174.9,0,174.9c.2,1.2.5,2.4,1.1,3.4.2.4,0,.7.7.6-.9-3.1-1.4-6.1-1.8-9.2.9,0,2.2.1,2.7-.9h0Z"/>
    </g>
    <path d="M165,156.6v-1.2c-.1,0,0,0,0,0v-.6c-.2.1-.4.2-.6.4l-.6-2.4c.4.1.8,0,1.1-.1v-1.5c-.1.7-.6,1.1-1.4,1-.2-.2,0-3.7-1.5-3.6l.9,2.7h-1.8c0-.1-.3-1.8-.3-1.8-1.3,0-.8,1.3-.3,1.9,1.1,1.1,3.3.1,2.9,3.4-1.5.2-2.9-1.3-4.3-.3l.7,2.4,4.4.8.4,2.8c-.8,1.1-1.4-.7-1.5-.8-.1-.1-.6.6-1,.6-.8,0-1.3-.9-1.8-1.1-2.1-.6-2.6.6-1.9,2.4.7.7,1.2.3,1.8-.1-.5,0-1-.1-1.4-.3-.4-2.5,1.2-1.6,2.6-.8l-1.2,1.2c.3,0,.8-.3,1.3-.3,1.8,0,1.4,2.5,1,3.8-1.4.2-2.4-1.9-3.8-.4l.5,1.6,3.1-.3c0,1.5,0,2.3-1.5,2.8l1.1.5c.3,2-1.9,2.4-3.3,2.7-.4,0-.4-1.8-1.4-1.5v2.1c-2.2.3-3.2-1.4-2.9-3.4.2-1.2,1.4-1.9,1.5-3.6,0-.4,0-2.4-.8-2.2-.5.4-3.8,3-3.9,3.2-.4,1.6,1.6,1.6,2.2,2.6.2.3.8,2.2.9,2.7.3,1.4-2.8-.9-2.3.3.6,1.5,4,.7,5.3,1-.1,1.3-1.5,1.6-2.4,2.2,2,.9,2.8-2.2,3.6-2.7.8-.5,2.7-.4,3.5-1.6.3,2.2-.4,4.6-.3,6.7,0,.4-.3,1.2.4,1,.5-.4.4-.8.5-1.3.2-2.5.1-5.1.3-7.7l.2-.4h.9c.4,1.5.5,3.5.9,5.4v-18.3h0ZM159.8,155.3c.6-.9,1.1-.9,1.6,0l-.5,1c.7.1.8-.6,1.4-.8,1.4-.4,1.9,0,1.9,1.4-1.6-.3-3.9.2-4.4-1.6h0ZM151.7,167.2l3.5-2.8c.2,1.5-.5,2.9-1.5,4-.4.2-1.9-.8-2.1-1.2h0ZM164.1,168.5l-1.1-.5c.2-3.4,2.1-2.5,1.1.5ZM163.7,165.2c-.7,0,.1-3.1-.1-3.6h.9c.3.8.5,3.6-.7,3.6h0Z"/>
  </g>
</svg>